<svg width="698" height="680" viewBox="0 0 698 680" fill="none" xmlns="http://www.w3.org/2000/svg">
<path d="M316.369 53.7948V52.8073H323.263V53.7948H320.373V62H319.259V53.7948H316.369ZM326.729 62.1436C326.064 62.1436 325.491 61.997 325.009 61.7037C324.531 61.4075 324.161 60.9945 323.901 60.4649C323.643 59.9322 323.515 59.3128 323.515 58.6066C323.515 57.9004 323.643 57.278 323.901 56.7393C324.161 56.1977 324.523 55.7758 324.987 55.4735C325.454 55.1683 325.998 55.0157 326.621 55.0157C326.98 55.0157 327.334 55.0755 327.685 55.1952C328.035 55.3149 328.353 55.5094 328.641 55.7787C328.928 56.0451 329.157 56.3982 329.327 56.8381C329.498 57.278 329.583 57.8196 329.583 58.463V58.9118H324.269V57.9961H328.506C328.506 57.6071 328.428 57.26 328.273 56.9548C328.12 56.6495 327.902 56.4087 327.617 56.2321C327.336 56.0555 327.004 55.9673 326.621 55.9673C326.199 55.9673 325.834 56.072 325.526 56.2815C325.22 56.488 324.985 56.7573 324.821 57.0894C324.656 57.4216 324.574 57.7777 324.574 58.1577V58.7682C324.574 59.2889 324.664 59.7302 324.843 60.0923C325.026 60.4514 325.279 60.7252 325.602 60.9137C325.925 61.0993 326.301 61.192 326.729 61.192C327.007 61.192 327.258 61.1531 327.483 61.0753C327.71 60.9945 327.906 60.8748 328.071 60.7162C328.235 60.5547 328.362 60.3542 328.452 60.1148L329.476 60.402C329.368 60.7492 329.187 61.0544 328.932 61.3177C328.678 61.5781 328.364 61.7816 327.99 61.9282C327.616 62.0718 327.195 62.1436 326.729 62.1436ZM331.8 55.1055L333.451 57.9243L335.103 55.1055H336.324L334.098 58.5527L336.324 62H335.103L333.451 59.3248L331.8 62H330.579L332.769 58.5527L330.579 55.1055H331.8ZM340.834 55.1055V56.0032H337.261V55.1055H340.834ZM338.302 53.4536H339.362V60.025C339.362 60.3242 339.405 60.5487 339.492 60.6983C339.582 60.8449 339.695 60.9437 339.833 60.9945C339.974 61.0424 340.122 61.0664 340.277 61.0664C340.394 61.0664 340.49 61.0604 340.565 61.0484C340.64 61.0334 340.699 61.0215 340.744 61.0125L340.96 61.9641C340.888 61.991 340.788 62.018 340.659 62.0449C340.53 62.0748 340.367 62.0898 340.17 62.0898C339.87 62.0898 339.577 62.0254 339.29 61.8968C339.006 61.7681 338.769 61.5721 338.581 61.3087C338.395 61.0454 338.302 60.7133 338.302 60.3123V53.4536ZM348.676 60.3841V54.4591H349.681V60.3841H348.676ZM346.216 57.9243V56.9189H352.141V57.9243H346.216ZM359.126 52.8073V62H358.013V52.8073H359.126ZM364.016 62.1436C363.369 62.1436 362.813 61.991 362.346 61.6858C361.879 61.3806 361.52 60.9601 361.269 60.4245C361.017 59.8888 360.892 59.2769 360.892 58.5886C360.892 57.8884 361.02 57.2705 361.278 56.7348C361.538 56.1962 361.9 55.7758 362.364 55.4735C362.831 55.1683 363.375 55.0157 363.998 55.0157C364.482 55.0157 364.919 55.1055 365.308 55.285C365.697 55.4645 366.016 55.7159 366.264 56.0391C366.513 56.3623 366.667 56.7393 366.727 57.1702H365.667C365.587 56.856 365.407 56.5777 365.129 56.3353C364.853 56.09 364.482 55.9673 364.016 55.9673C363.603 55.9673 363.241 56.075 362.929 56.2905C362.621 56.5029 362.38 56.8037 362.207 57.1927C362.036 57.5787 361.951 58.032 361.951 58.5527C361.951 59.0854 362.035 59.5492 362.202 59.9442C362.373 60.3392 362.612 60.6459 362.92 60.8644C363.232 61.0828 363.597 61.192 364.016 61.192C364.291 61.192 364.541 61.1442 364.765 61.0484C364.99 60.9527 365.18 60.815 365.335 60.6355C365.491 60.4559 365.602 60.2405 365.667 59.9891H366.727C366.667 60.3961 366.519 60.7626 366.282 61.0888C366.049 61.412 365.739 61.6693 365.353 61.8609C364.97 62.0494 364.524 62.1436 364.016 62.1436ZM371.076 62.1436C370.454 62.1436 369.908 61.9955 369.438 61.6993C368.971 61.403 368.606 60.9886 368.343 60.4559C368.082 59.9233 367.952 59.3008 367.952 58.5886C367.952 57.8705 368.082 57.2435 368.343 56.7079C368.606 56.1723 368.971 55.7563 369.438 55.4601C369.908 55.1638 370.454 55.0157 371.076 55.0157C371.699 55.0157 372.243 55.1638 372.71 55.4601C373.18 55.7563 373.545 56.1723 373.805 56.7079C374.069 57.2435 374.2 57.8705 374.2 58.5886C374.2 59.3008 374.069 59.9233 373.805 60.4559C373.545 60.9886 373.18 61.403 372.71 61.6993C372.243 61.9955 371.699 62.1436 371.076 62.1436ZM371.076 61.192C371.549 61.192 371.938 61.0709 372.243 60.8285C372.549 60.5861 372.774 60.2674 372.921 59.8724C373.068 59.4774 373.141 59.0495 373.141 58.5886C373.141 58.1278 373.068 57.6984 372.921 57.3004C372.774 56.9024 372.549 56.5807 372.243 56.3353C371.938 56.09 371.549 55.9673 371.076 55.9673C370.603 55.9673 370.214 56.09 369.909 56.3353C369.604 56.5807 369.378 56.9024 369.231 57.3004C369.085 57.6984 369.011 58.1278 369.011 58.5886C369.011 59.0495 369.085 59.4774 369.231 59.8724C369.378 60.2674 369.604 60.5861 369.909 60.8285C370.214 61.0709 370.603 61.192 371.076 61.192ZM376.877 57.8525V62H375.817V55.1055H376.841V56.1827H376.931C377.092 55.8326 377.338 55.5513 377.667 55.3389C377.996 55.1234 378.421 55.0157 378.941 55.0157C379.408 55.0157 379.817 55.1114 380.167 55.303C380.517 55.4915 380.789 55.7787 380.984 56.1648C381.178 56.5478 381.276 57.0326 381.276 57.6191V62H380.216V57.6909C380.216 57.1493 380.076 56.7273 379.794 56.4251C379.513 56.1199 379.127 55.9673 378.636 55.9673C378.298 55.9673 377.996 56.0406 377.73 56.1872C377.466 56.3338 377.258 56.5478 377.106 56.8291C376.953 57.1104 376.877 57.4515 376.877 57.8525Z" fill="#8D97A4"/>
<rect x="312.5" y="74" width="73" height="32" rx="4" fill="#CDD2DB"/>
<path d="M323.51 95V85.8073H324.897V93.806H329.062V95H323.51ZM332.543 95.1526C332.106 95.1526 331.711 95.0718 331.358 94.9102C331.005 94.7456 330.725 94.5077 330.519 94.1965C330.315 93.8853 330.214 93.5038 330.214 93.0519C330.214 92.6629 330.289 92.3427 330.438 92.0914C330.588 91.84 330.79 91.641 331.044 91.4944C331.298 91.3477 331.583 91.237 331.897 91.1622C332.211 91.0874 332.531 91.0305 332.858 90.9916C333.27 90.9438 333.606 90.9049 333.863 90.8749C334.12 90.842 334.307 90.7897 334.424 90.7178C334.541 90.646 334.599 90.5293 334.599 90.3677V90.3363C334.599 89.9443 334.488 89.6406 334.267 89.4251C334.049 89.2097 333.722 89.1019 333.288 89.1019C332.837 89.1019 332.48 89.2022 332.22 89.4027C331.963 89.6002 331.785 89.8201 331.686 90.0625L330.425 89.7752C330.574 89.3563 330.793 89.0181 331.08 88.7608C331.37 88.5005 331.704 88.3119 332.081 88.1952C332.458 88.0755 332.855 88.0157 333.27 88.0157C333.546 88.0157 333.838 88.0486 334.146 88.1144C334.457 88.1773 334.747 88.294 335.017 88.4645C335.289 88.6351 335.512 88.879 335.685 89.1962C335.859 89.5104 335.946 89.9189 335.946 90.4216V95H334.635V94.0574H334.581C334.494 94.2309 334.364 94.4015 334.191 94.5691C334.017 94.7367 333.794 94.8758 333.522 94.9865C333.25 95.0973 332.923 95.1526 332.543 95.1526ZM332.835 94.0753C333.206 94.0753 333.523 94.002 333.787 93.8554C334.053 93.7088 334.255 93.5173 334.393 93.2809C334.533 93.0415 334.604 92.7856 334.604 92.5133V91.6245C334.556 91.6724 334.463 91.7173 334.325 91.7592C334.191 91.7981 334.037 91.8325 333.863 91.8624C333.689 91.8894 333.52 91.9148 333.356 91.9387C333.191 91.9597 333.054 91.9777 332.943 91.9926C332.682 92.0255 332.445 92.0809 332.229 92.1587C332.017 92.2365 331.846 92.3487 331.717 92.4953C331.592 92.639 331.529 92.8305 331.529 93.0699C331.529 93.402 331.652 93.6534 331.897 93.824C332.142 93.9916 332.455 94.0753 332.835 94.0753ZM337.841 95V85.8073H339.183V89.2231H339.264C339.342 89.0795 339.454 88.9134 339.601 88.7249C339.747 88.5364 339.951 88.3718 340.211 88.2311C340.471 88.0875 340.816 88.0157 341.243 88.0157C341.8 88.0157 342.297 88.1563 342.734 88.4376C343.171 88.7189 343.513 89.1244 343.762 89.654C344.013 90.1837 344.139 90.8211 344.139 91.5662C344.139 92.3113 344.014 92.9502 343.766 93.4828C343.518 94.0125 343.177 94.421 342.743 94.7082C342.309 94.9925 341.813 95.1347 341.257 95.1347C340.838 95.1347 340.495 95.0643 340.229 94.9237C339.966 94.783 339.759 94.6185 339.61 94.4299C339.46 94.2414 339.345 94.0738 339.264 93.9272H339.152V95H337.841ZM339.156 91.5527C339.156 92.0375 339.227 92.4624 339.367 92.8275C339.508 93.1926 339.711 93.4784 339.978 93.6848C340.244 93.8883 340.57 93.9901 340.956 93.9901C341.357 93.9901 341.692 93.8838 341.962 93.6714C342.231 93.4559 342.434 93.1641 342.572 92.7961C342.713 92.428 342.783 92.0136 342.783 91.5527C342.783 91.0979 342.714 90.6894 342.577 90.3273C342.442 89.9652 342.238 89.6795 341.966 89.47C341.697 89.2605 341.36 89.1558 340.956 89.1558C340.567 89.1558 340.238 89.256 339.969 89.4565C339.702 89.657 339.5 89.9368 339.363 90.2959C339.225 90.655 339.156 91.0739 339.156 91.5527ZM348.617 95.1391C347.938 95.1391 347.353 94.994 346.862 94.7037C346.374 94.4105 345.997 93.999 345.731 93.4694C345.468 92.9367 345.336 92.3128 345.336 91.5976C345.336 90.8914 345.468 90.269 345.731 89.7303C345.997 89.1917 346.368 88.7713 346.844 88.469C347.323 88.1668 347.882 88.0157 348.523 88.0157C348.912 88.0157 349.289 88.08 349.654 88.2087C350.019 88.3374 350.347 88.5394 350.637 88.8147C350.927 89.09 351.156 89.4476 351.324 89.8874C351.491 90.3243 351.575 90.8555 351.575 91.4809V91.9567H346.095V90.9512H350.26C350.26 90.5981 350.188 90.2854 350.045 90.0131C349.901 89.7378 349.699 89.5209 349.439 89.3623C349.181 89.2037 348.879 89.1244 348.532 89.1244C348.155 89.1244 347.826 89.2171 347.544 89.4027C347.266 89.5852 347.051 89.8246 346.898 90.1209C346.748 90.4141 346.674 90.7328 346.674 91.0769V91.8624C346.674 92.3233 346.754 92.7153 346.916 93.0385C347.081 93.3616 347.309 93.6085 347.603 93.7791C347.896 93.9467 348.239 94.0305 348.631 94.0305C348.885 94.0305 349.117 93.9945 349.326 93.9227C349.536 93.8479 349.717 93.7372 349.869 93.5906C350.022 93.4439 350.139 93.2629 350.22 93.0474L351.49 93.2764C351.388 93.6504 351.206 93.9781 350.942 94.2594C350.682 94.5377 350.354 94.7546 349.959 94.9102C349.567 95.0628 349.12 95.1391 348.617 95.1391ZM354.406 85.8073V95H353.064V85.8073H354.406Z" fill="#353C43"/>
<path fill-rule="evenodd" clip-rule="evenodd" d="M368.894 85.6054C369.118 85.0664 369.882 85.0664 370.106 85.6054L371.147 88.1083L373.849 88.3249C374.431 88.3715 374.667 89.0977 374.223 89.4774L372.165 91.2409L372.794 93.8776C372.929 94.4454 372.311 94.8942 371.813 94.5899L369.5 93.177L367.187 94.5899C366.689 94.8942 366.071 94.4454 366.206 93.8776L366.835 91.2409L364.777 89.4774C364.333 89.0977 364.569 88.3715 365.151 88.3249L367.853 88.1083L368.894 85.6054Z" fill="#353C43"/>
<path d="M336.761 158.795V157.807H343.655V158.795H340.764V167H339.651V158.795H336.761ZM347.12 167.144C346.456 167.144 345.883 166.997 345.401 166.704C344.922 166.407 344.553 165.995 344.293 165.465C344.035 164.932 343.907 164.313 343.907 163.607C343.907 162.9 344.035 162.278 344.293 161.739C344.553 161.198 344.915 160.776 345.379 160.474C345.846 160.168 346.39 160.016 347.013 160.016C347.372 160.016 347.726 160.076 348.076 160.195C348.427 160.315 348.745 160.509 349.033 160.779C349.32 161.045 349.549 161.398 349.719 161.838C349.89 162.278 349.975 162.82 349.975 163.463V163.912H344.661V162.996H348.898C348.898 162.607 348.82 162.26 348.664 161.955C348.512 161.65 348.293 161.409 348.009 161.232C347.728 161.056 347.396 160.967 347.013 160.967C346.591 160.967 346.226 161.072 345.917 161.281C345.612 161.488 345.377 161.757 345.213 162.089C345.048 162.422 344.966 162.778 344.966 163.158V163.768C344.966 164.289 345.056 164.73 345.235 165.092C345.418 165.451 345.671 165.725 345.994 165.914C346.317 166.099 346.692 166.192 347.12 166.192C347.399 166.192 347.65 166.153 347.874 166.075C348.102 165.995 348.298 165.875 348.462 165.716C348.627 165.555 348.754 165.354 348.844 165.115L349.867 165.402C349.76 165.749 349.579 166.054 349.324 166.318C349.07 166.578 348.756 166.782 348.382 166.928C348.008 167.072 347.587 167.144 347.12 167.144ZM352.191 160.105L353.843 162.924L355.495 160.105H356.716L354.49 163.553L356.716 167H355.495L353.843 164.325L352.191 167H350.971L353.161 163.553L350.971 160.105H352.191ZM361.226 160.105V161.003H357.653V160.105H361.226ZM358.694 158.454H359.754V165.025C359.754 165.324 359.797 165.549 359.884 165.698C359.974 165.845 360.087 165.944 360.225 165.995C360.366 166.042 360.514 166.066 360.669 166.066C360.786 166.066 360.882 166.06 360.957 166.048C361.031 166.033 361.091 166.021 361.136 166.012L361.352 166.964C361.28 166.991 361.18 167.018 361.051 167.045C360.922 167.075 360.759 167.09 360.562 167.09C360.262 167.09 359.969 167.025 359.682 166.897C359.398 166.768 359.161 166.572 358.973 166.309C358.787 166.045 358.694 165.713 358.694 165.312V158.454Z" fill="#8D97A4"/>
<rect x="322.5" y="179" width="53" height="32" rx="4" fill="#CDD2DB"/>
<path d="M333.51 200V190.807H334.897V198.806H339.062V200H333.51ZM342.543 200.153C342.106 200.153 341.711 200.072 341.358 199.91C341.005 199.746 340.725 199.508 340.519 199.197C340.315 198.885 340.214 198.504 340.214 198.052C340.214 197.663 340.289 197.343 340.438 197.091C340.588 196.84 340.79 196.641 341.044 196.494C341.298 196.348 341.583 196.237 341.897 196.162C342.211 196.087 342.531 196.031 342.858 195.992C343.27 195.944 343.606 195.905 343.863 195.875C344.12 195.842 344.307 195.79 344.424 195.718C344.541 195.646 344.599 195.529 344.599 195.368V195.336C344.599 194.944 344.488 194.641 344.267 194.425C344.049 194.21 343.722 194.102 343.288 194.102C342.837 194.102 342.48 194.202 342.22 194.403C341.963 194.6 341.785 194.82 341.686 195.062L340.425 194.775C340.574 194.356 340.793 194.018 341.08 193.761C341.37 193.5 341.704 193.312 342.081 193.195C342.458 193.076 342.855 193.016 343.27 193.016C343.546 193.016 343.838 193.049 344.146 193.114C344.457 193.177 344.747 193.294 345.017 193.465C345.289 193.635 345.512 193.879 345.685 194.196C345.859 194.51 345.946 194.919 345.946 195.422V200H344.635V199.057H344.581C344.494 199.231 344.364 199.402 344.191 199.569C344.017 199.737 343.794 199.876 343.522 199.987C343.25 200.097 342.923 200.153 342.543 200.153ZM342.835 199.075C343.206 199.075 343.523 199.002 343.787 198.855C344.053 198.709 344.255 198.517 344.393 198.281C344.533 198.041 344.604 197.786 344.604 197.513V196.625C344.556 196.672 344.463 196.717 344.325 196.759C344.191 196.798 344.037 196.833 343.863 196.862C343.689 196.889 343.52 196.915 343.356 196.939C343.191 196.96 343.054 196.978 342.943 196.993C342.682 197.026 342.445 197.081 342.229 197.159C342.017 197.236 341.846 197.349 341.717 197.495C341.592 197.639 341.529 197.83 341.529 198.07C341.529 198.402 341.652 198.653 341.897 198.824C342.142 198.992 342.455 199.075 342.835 199.075ZM347.841 200V190.807H349.183V194.223H349.264C349.342 194.079 349.454 193.913 349.601 193.725C349.747 193.536 349.951 193.372 350.211 193.231C350.471 193.087 350.816 193.016 351.243 193.016C351.8 193.016 352.297 193.156 352.734 193.438C353.171 193.719 353.513 194.124 353.762 194.654C354.013 195.184 354.139 195.821 354.139 196.566C354.139 197.311 354.014 197.95 353.766 198.483C353.518 199.012 353.177 199.421 352.743 199.708C352.309 199.993 351.813 200.135 351.257 200.135C350.838 200.135 350.495 200.064 350.229 199.924C349.966 199.783 349.759 199.618 349.61 199.43C349.46 199.241 349.345 199.074 349.264 198.927H349.152V200H347.841ZM349.156 196.553C349.156 197.037 349.227 197.462 349.367 197.827C349.508 198.193 349.711 198.478 349.978 198.685C350.244 198.888 350.57 198.99 350.956 198.99C351.357 198.99 351.692 198.884 351.962 198.671C352.231 198.456 352.434 198.164 352.572 197.796C352.713 197.428 352.783 197.014 352.783 196.553C352.783 196.098 352.714 195.689 352.577 195.327C352.442 194.965 352.238 194.679 351.966 194.47C351.697 194.261 351.36 194.156 350.956 194.156C350.567 194.156 350.238 194.256 349.969 194.457C349.702 194.657 349.5 194.937 349.363 195.296C349.225 195.655 349.156 196.074 349.156 196.553ZM358.617 200.139C357.938 200.139 357.353 199.994 356.862 199.704C356.374 199.41 355.997 198.999 355.731 198.469C355.468 197.937 355.336 197.313 355.336 196.598C355.336 195.891 355.468 195.269 355.731 194.73C355.997 194.192 356.368 193.771 356.844 193.469C357.323 193.167 357.882 193.016 358.523 193.016C358.912 193.016 359.289 193.08 359.654 193.209C360.019 193.337 360.347 193.539 360.637 193.815C360.927 194.09 361.156 194.448 361.324 194.887C361.491 195.324 361.575 195.855 361.575 196.481V196.957H356.095V195.951H360.26C360.26 195.598 360.188 195.285 360.045 195.013C359.901 194.738 359.699 194.521 359.439 194.362C359.181 194.204 358.879 194.124 358.532 194.124C358.155 194.124 357.826 194.217 357.544 194.403C357.266 194.585 357.051 194.825 356.898 195.121C356.748 195.414 356.674 195.733 356.674 196.077V196.862C356.674 197.323 356.754 197.715 356.916 198.038C357.081 198.362 357.309 198.609 357.603 198.779C357.896 198.947 358.239 199.03 358.631 199.03C358.885 199.03 359.117 198.995 359.326 198.923C359.536 198.848 359.717 198.737 359.869 198.591C360.022 198.444 360.139 198.263 360.22 198.047L361.49 198.276C361.388 198.65 361.206 198.978 360.942 199.259C360.682 199.538 360.354 199.755 359.959 199.91C359.567 200.063 359.12 200.139 358.617 200.139ZM364.406 190.807V200H363.064V190.807H364.406Z" fill="#353C43"/>
<path d="M338.556 262.807V272H337.442V262.807H338.556ZM343.445 272.144C342.798 272.144 342.242 271.991 341.775 271.686C341.308 271.381 340.949 270.96 340.698 270.424C340.446 269.889 340.321 269.277 340.321 268.589C340.321 267.888 340.449 267.27 340.707 266.735C340.967 266.196 341.329 265.776 341.793 265.474C342.26 265.168 342.804 265.016 343.427 265.016C343.912 265.016 344.348 265.105 344.737 265.285C345.126 265.465 345.445 265.716 345.694 266.039C345.942 266.362 346.096 266.739 346.156 267.17H345.097C345.016 266.856 344.836 266.578 344.558 266.335C344.283 266.09 343.912 265.967 343.445 265.967C343.032 265.967 342.67 266.075 342.359 266.29C342.05 266.503 341.809 266.804 341.636 267.193C341.465 267.579 341.38 268.032 341.38 268.553C341.38 269.085 341.464 269.549 341.631 269.944C341.802 270.339 342.041 270.646 342.35 270.864C342.661 271.083 343.026 271.192 343.445 271.192C343.72 271.192 343.97 271.144 344.194 271.048C344.419 270.953 344.609 270.815 344.764 270.635C344.92 270.456 345.031 270.24 345.097 269.989H346.156C346.096 270.396 345.948 270.763 345.712 271.089C345.478 271.412 345.168 271.669 344.782 271.861C344.399 272.049 343.953 272.144 343.445 272.144ZM350.505 272.144C349.883 272.144 349.337 271.996 348.867 271.699C348.4 271.403 348.035 270.989 347.772 270.456C347.511 269.923 347.381 269.301 347.381 268.589C347.381 267.87 347.511 267.244 347.772 266.708C348.035 266.172 348.4 265.756 348.867 265.46C349.337 265.164 349.883 265.016 350.505 265.016C351.128 265.016 351.672 265.164 352.139 265.46C352.609 265.756 352.974 266.172 353.234 266.708C353.498 267.244 353.629 267.87 353.629 268.589C353.629 269.301 353.498 269.923 353.234 270.456C352.974 270.989 352.609 271.403 352.139 271.699C351.672 271.996 351.128 272.144 350.505 272.144ZM350.505 271.192C350.978 271.192 351.367 271.071 351.672 270.828C351.978 270.586 352.204 270.267 352.35 269.872C352.497 269.477 352.57 269.049 352.57 268.589C352.57 268.128 352.497 267.698 352.35 267.3C352.204 266.902 351.978 266.581 351.672 266.335C351.367 266.09 350.978 265.967 350.505 265.967C350.033 265.967 349.644 266.09 349.338 266.335C349.033 266.581 348.807 266.902 348.661 267.3C348.514 267.698 348.441 268.128 348.441 268.589C348.441 269.049 348.514 269.477 348.661 269.872C348.807 270.267 349.033 270.586 349.338 270.828C349.644 271.071 350.033 271.192 350.505 271.192ZM356.306 267.852V272H355.247V265.105H356.27V266.183H356.36C356.521 265.833 356.767 265.551 357.096 265.339C357.425 265.123 357.85 265.016 358.371 265.016C358.837 265.016 359.246 265.111 359.596 265.303C359.946 265.491 360.218 265.779 360.413 266.165C360.607 266.548 360.705 267.033 360.705 267.619V272H359.645V267.691C359.645 267.149 359.505 266.727 359.223 266.425C358.942 266.12 358.556 265.967 358.065 265.967C357.727 265.967 357.425 266.041 357.159 266.187C356.895 266.334 356.687 266.548 356.535 266.829C356.382 267.11 356.306 267.452 356.306 267.852Z" fill="#8D97A4"/>
<rect x="333" y="284" width="32" height="32" rx="4" fill="#CDD2DB"/>
<path fill-rule="evenodd" clip-rule="evenodd" d="M348.394 295.605C348.618 295.066 349.382 295.066 349.606 295.605L350.647 298.108L353.349 298.325C353.931 298.372 354.167 299.098 353.723 299.477L351.665 301.241L352.294 303.878C352.429 304.445 351.811 304.894 351.313 304.59L349 303.177L346.687 304.59C346.189 304.894 345.571 304.445 345.706 303.878L346.335 301.241L344.277 299.477C343.833 299.098 344.069 298.372 344.651 298.325L347.353 298.108L348.394 295.605Z" fill="#353C43"/>
<path d="M321.507 377V367.807H327.019V368.795H322.62V371.901H326.606V372.888H322.62V377H321.507ZM332.694 374.181V370.105H333.754V377H332.694V375.833H332.623C332.461 376.183 332.21 376.481 331.869 376.726C331.527 376.969 331.097 377.09 330.576 377.09C330.145 377.09 329.762 376.996 329.427 376.807C329.092 376.615 328.828 376.328 328.637 375.945C328.445 375.559 328.349 375.073 328.349 374.486V370.105H329.409V374.415C329.409 374.917 329.549 375.318 329.831 375.617C330.115 375.917 330.477 376.066 330.917 376.066C331.18 376.066 331.448 375.999 331.72 375.864C331.996 375.73 332.226 375.523 332.412 375.245C332.6 374.967 332.694 374.612 332.694 374.181ZM336.753 367.807V377H335.694V367.807H336.753ZM339.753 367.807V377H338.694V367.807H339.753ZM346.81 377L344.709 370.105H345.823L347.313 375.384H347.385L348.857 370.105H349.988L351.442 375.366H351.514L353.004 370.105H354.118L352.017 377H350.976L349.467 371.703H349.36L347.851 377H346.81ZM355.518 377V370.105H356.577V377H355.518ZM356.057 368.956C355.85 368.956 355.672 368.886 355.523 368.745C355.376 368.605 355.303 368.436 355.303 368.238C355.303 368.041 355.376 367.872 355.523 367.731C355.672 367.59 355.85 367.52 356.057 367.52C356.263 367.52 356.44 367.59 356.586 367.731C356.736 367.872 356.811 368.041 356.811 368.238C356.811 368.436 356.736 368.605 356.586 368.745C356.44 368.886 356.263 368.956 356.057 368.956ZM361.121 377.144C360.546 377.144 360.039 376.999 359.599 376.708C359.159 376.415 358.815 376.002 358.567 375.469C358.319 374.934 358.194 374.301 358.194 373.571C358.194 372.847 358.319 372.218 358.567 371.685C358.815 371.153 359.161 370.741 359.604 370.451C360.047 370.161 360.558 370.016 361.139 370.016C361.588 370.016 361.942 370.09 362.203 370.24C362.466 370.387 362.667 370.554 362.804 370.743C362.945 370.928 363.054 371.081 363.132 371.201H363.222V367.807H364.281V377H363.258V375.941H363.132C363.054 376.066 362.943 376.225 362.8 376.416C362.656 376.605 362.451 376.774 362.185 376.924C361.918 377.07 361.564 377.144 361.121 377.144ZM361.265 376.192C361.69 376.192 362.049 376.081 362.342 375.86C362.635 375.635 362.858 375.326 363.011 374.931C363.163 374.533 363.24 374.073 363.24 373.553C363.24 373.038 363.165 372.588 363.015 372.202C362.866 371.813 362.644 371.51 362.351 371.295C362.058 371.076 361.696 370.967 361.265 370.967C360.816 370.967 360.442 371.082 360.142 371.313C359.846 371.54 359.623 371.85 359.474 372.242C359.327 372.631 359.254 373.068 359.254 373.553C359.254 374.043 359.329 374.489 359.478 374.89C359.631 375.288 359.855 375.606 360.151 375.842C360.451 376.075 360.822 376.192 361.265 376.192ZM369.367 370.105V371.003H365.794V370.105H369.367ZM366.835 368.454H367.894V375.025C367.894 375.324 367.938 375.549 368.025 375.698C368.114 375.845 368.228 375.944 368.366 375.995C368.506 376.042 368.654 376.066 368.81 376.066C368.927 376.066 369.022 376.06 369.097 376.048C369.172 376.033 369.232 376.021 369.277 376.012L369.492 376.964C369.42 376.991 369.32 377.018 369.192 377.045C369.063 377.075 368.9 377.09 368.702 377.09C368.403 377.09 368.11 377.025 367.823 376.897C367.538 376.768 367.302 376.572 367.113 376.309C366.928 376.045 366.835 375.713 366.835 375.312V368.454ZM372.168 372.852V377H371.108V367.807H372.168V371.183H372.257C372.419 370.827 372.661 370.544 372.984 370.334C373.311 370.122 373.745 370.016 374.286 370.016C374.756 370.016 375.167 370.11 375.521 370.298C375.874 370.484 376.147 370.77 376.342 371.156C376.539 371.539 376.638 372.027 376.638 372.619V377H375.579V372.691C375.579 372.143 375.437 371.72 375.152 371.421C374.871 371.118 374.481 370.967 373.981 370.967C373.634 370.967 373.323 371.041 373.047 371.187C372.775 371.334 372.56 371.548 372.401 371.829C372.245 372.11 372.168 372.452 372.168 372.852Z" fill="#8D97A4"/>
<rect x="252.5" y="389" width="193" height="32" rx="4" fill="#CDD2DB"/>
<path d="M333.51 410V400.807H334.897V408.806H339.062V410H333.51ZM342.543 410.153C342.106 410.153 341.711 410.072 341.358 409.91C341.005 409.746 340.725 409.508 340.519 409.197C340.315 408.885 340.214 408.504 340.214 408.052C340.214 407.663 340.289 407.343 340.438 407.091C340.588 406.84 340.79 406.641 341.044 406.494C341.298 406.348 341.583 406.237 341.897 406.162C342.211 406.087 342.531 406.031 342.858 405.992C343.27 405.944 343.606 405.905 343.863 405.875C344.12 405.842 344.307 405.79 344.424 405.718C344.541 405.646 344.599 405.529 344.599 405.368V405.336C344.599 404.944 344.488 404.641 344.267 404.425C344.049 404.21 343.722 404.102 343.288 404.102C342.837 404.102 342.48 404.202 342.22 404.403C341.963 404.6 341.785 404.82 341.686 405.062L340.425 404.775C340.574 404.356 340.793 404.018 341.08 403.761C341.37 403.5 341.704 403.312 342.081 403.195C342.458 403.076 342.855 403.016 343.27 403.016C343.546 403.016 343.838 403.049 344.146 403.114C344.457 403.177 344.747 403.294 345.017 403.465C345.289 403.635 345.512 403.879 345.685 404.196C345.859 404.51 345.946 404.919 345.946 405.422V410H344.635V409.057H344.581C344.494 409.231 344.364 409.402 344.191 409.569C344.017 409.737 343.794 409.876 343.522 409.987C343.25 410.097 342.923 410.153 342.543 410.153ZM342.835 409.075C343.206 409.075 343.523 409.002 343.787 408.855C344.053 408.709 344.255 408.517 344.393 408.281C344.533 408.041 344.604 407.786 344.604 407.513V406.625C344.556 406.672 344.463 406.717 344.325 406.759C344.191 406.798 344.037 406.833 343.863 406.862C343.689 406.889 343.52 406.915 343.356 406.939C343.191 406.96 343.054 406.978 342.943 406.993C342.682 407.026 342.445 407.081 342.229 407.159C342.017 407.236 341.846 407.349 341.717 407.495C341.592 407.639 341.529 407.83 341.529 408.07C341.529 408.402 341.652 408.653 341.897 408.824C342.142 408.992 342.455 409.075 342.835 409.075ZM347.841 410V400.807H349.183V404.223H349.264C349.342 404.079 349.454 403.913 349.601 403.725C349.747 403.536 349.951 403.372 350.211 403.231C350.471 403.087 350.816 403.016 351.243 403.016C351.8 403.016 352.297 403.156 352.734 403.438C353.171 403.719 353.513 404.124 353.762 404.654C354.013 405.184 354.139 405.821 354.139 406.566C354.139 407.311 354.014 407.95 353.766 408.483C353.518 409.012 353.177 409.421 352.743 409.708C352.309 409.993 351.813 410.135 351.257 410.135C350.838 410.135 350.495 410.064 350.229 409.924C349.966 409.783 349.759 409.618 349.61 409.43C349.46 409.241 349.345 409.074 349.264 408.927H349.152V410H347.841ZM349.156 406.553C349.156 407.037 349.227 407.462 349.367 407.827C349.508 408.193 349.711 408.478 349.978 408.685C350.244 408.888 350.57 408.99 350.956 408.99C351.357 408.99 351.692 408.884 351.962 408.671C352.231 408.456 352.434 408.164 352.572 407.796C352.713 407.428 352.783 407.014 352.783 406.553C352.783 406.098 352.714 405.689 352.577 405.327C352.442 404.965 352.238 404.679 351.966 404.47C351.697 404.261 351.36 404.156 350.956 404.156C350.567 404.156 350.238 404.256 349.969 404.457C349.702 404.657 349.5 404.937 349.363 405.296C349.225 405.655 349.156 406.074 349.156 406.553ZM358.617 410.139C357.938 410.139 357.353 409.994 356.862 409.704C356.374 409.41 355.997 408.999 355.731 408.469C355.468 407.937 355.336 407.313 355.336 406.598C355.336 405.891 355.468 405.269 355.731 404.73C355.997 404.192 356.368 403.771 356.844 403.469C357.323 403.167 357.882 403.016 358.523 403.016C358.912 403.016 359.289 403.08 359.654 403.209C360.019 403.337 360.347 403.539 360.637 403.815C360.927 404.09 361.156 404.448 361.324 404.887C361.491 405.324 361.575 405.855 361.575 406.481V406.957H356.095V405.951H360.26C360.26 405.598 360.188 405.285 360.045 405.013C359.901 404.738 359.699 404.521 359.439 404.362C359.181 404.204 358.879 404.124 358.532 404.124C358.155 404.124 357.826 404.217 357.544 404.403C357.266 404.585 357.051 404.825 356.898 405.121C356.748 405.414 356.674 405.733 356.674 406.077V406.862C356.674 407.323 356.754 407.715 356.916 408.038C357.081 408.362 357.309 408.609 357.603 408.779C357.896 408.947 358.239 409.03 358.631 409.03C358.885 409.03 359.117 408.995 359.326 408.923C359.536 408.848 359.717 408.737 359.869 408.591C360.022 408.444 360.139 408.263 360.22 408.047L361.49 408.276C361.388 408.65 361.206 408.978 360.942 409.259C360.682 409.538 360.354 409.755 359.959 409.91C359.567 410.063 359.12 410.139 358.617 410.139ZM364.406 400.807V410H363.064V400.807H364.406Z" fill="#353C43"/>
<path d="M315.928 475.68C315.83 475.378 315.699 475.107 315.538 474.868C315.379 474.625 315.189 474.419 314.968 474.248C314.749 474.078 314.501 473.947 314.223 473.858C313.944 473.768 313.639 473.723 313.307 473.723C312.762 473.723 312.267 473.864 311.821 474.145C311.375 474.426 311.021 474.841 310.757 475.388C310.494 475.936 310.362 476.608 310.362 477.404C310.362 478.2 310.496 478.871 310.762 479.419C311.028 479.967 311.389 480.381 311.844 480.662C312.298 480.944 312.81 481.084 313.379 481.084C313.905 481.084 314.369 480.972 314.77 480.748C315.174 480.52 315.488 480.2 315.713 479.787C315.94 479.371 316.054 478.882 316.054 478.319L316.395 478.391H313.63V477.404H317.131V478.391C317.131 479.148 316.97 479.807 316.646 480.366C316.326 480.926 315.883 481.36 315.318 481.668C314.755 481.973 314.109 482.126 313.379 482.126C312.565 482.126 311.85 481.934 311.233 481.551C310.62 481.168 310.141 480.623 309.797 479.917C309.456 479.211 309.285 478.373 309.285 477.404C309.285 476.676 309.382 476.023 309.577 475.442C309.774 474.859 310.053 474.362 310.412 473.952C310.771 473.542 311.196 473.228 311.687 473.009C312.177 472.791 312.717 472.682 313.307 472.682C313.792 472.682 314.244 472.755 314.662 472.902C315.084 473.045 315.46 473.25 315.789 473.516C316.121 473.78 316.398 474.096 316.62 474.464C316.841 474.829 316.994 475.234 317.077 475.68H315.928ZM318.894 482V475.105H319.918V476.147H319.989C320.115 475.806 320.342 475.529 320.672 475.316C321.001 475.104 321.372 474.998 321.785 474.998C321.863 474.998 321.96 474.999 322.077 475.002C322.193 475.005 322.282 475.01 322.341 475.016V476.093C322.306 476.084 322.223 476.071 322.095 476.053C321.969 476.032 321.836 476.021 321.695 476.021C321.36 476.021 321.061 476.091 320.797 476.232C320.537 476.37 320.331 476.561 320.178 476.807C320.028 477.049 319.953 477.326 319.953 477.637V482H318.894ZM326.188 482.144C325.566 482.144 325.02 481.996 324.55 481.699C324.083 481.403 323.718 480.989 323.455 480.456C323.194 479.923 323.064 479.301 323.064 478.589C323.064 477.87 323.194 477.244 323.455 476.708C323.718 476.172 324.083 475.756 324.55 475.46C325.02 475.164 325.566 475.016 326.188 475.016C326.811 475.016 327.355 475.164 327.822 475.46C328.292 475.756 328.657 476.172 328.917 476.708C329.181 477.244 329.312 477.87 329.312 478.589C329.312 479.301 329.181 479.923 328.917 480.456C328.657 480.989 328.292 481.403 327.822 481.699C327.355 481.996 326.811 482.144 326.188 482.144ZM326.188 481.192C326.661 481.192 327.05 481.071 327.355 480.828C327.66 480.586 327.886 480.267 328.033 479.872C328.18 479.477 328.253 479.049 328.253 478.589C328.253 478.128 328.18 477.698 328.033 477.3C327.886 476.902 327.66 476.581 327.355 476.335C327.05 476.09 326.661 475.967 326.188 475.967C325.715 475.967 325.326 476.09 325.021 476.335C324.716 476.581 324.49 476.902 324.343 477.3C324.197 477.698 324.123 478.128 324.123 478.589C324.123 479.049 324.197 479.477 324.343 479.872C324.49 480.267 324.716 480.586 325.021 480.828C325.326 481.071 325.715 481.192 326.188 481.192ZM335.274 479.181V475.105H336.334V482H335.274V480.833H335.202C335.041 481.183 334.79 481.481 334.448 481.726C334.107 481.969 333.676 482.09 333.156 482.09C332.725 482.09 332.342 481.996 332.007 481.807C331.671 481.615 331.408 481.328 331.217 480.945C331.025 480.559 330.929 480.073 330.929 479.486V475.105H331.989V479.415C331.989 479.917 332.129 480.318 332.411 480.617C332.695 480.917 333.057 481.066 333.497 481.066C333.76 481.066 334.028 480.999 334.3 480.864C334.576 480.73 334.806 480.523 334.992 480.245C335.18 479.967 335.274 479.612 335.274 479.181ZM338.274 484.585V475.105H339.297V476.201H339.423C339.501 476.081 339.608 475.928 339.746 475.743C339.887 475.554 340.087 475.387 340.348 475.24C340.611 475.09 340.967 475.016 341.416 475.016C341.996 475.016 342.508 475.161 342.951 475.451C343.394 475.741 343.74 476.153 343.988 476.685C344.236 477.218 344.36 477.847 344.36 478.571C344.36 479.301 344.236 479.934 343.988 480.469C343.74 481.002 343.395 481.415 342.955 481.708C342.516 481.999 342.008 482.144 341.434 482.144C340.991 482.144 340.636 482.07 340.37 481.924C340.104 481.774 339.899 481.605 339.755 481.416C339.611 481.225 339.501 481.066 339.423 480.941H339.333V484.585H338.274ZM339.315 478.553C339.315 479.073 339.392 479.533 339.544 479.931C339.697 480.326 339.92 480.635 340.213 480.86C340.506 481.081 340.865 481.192 341.29 481.192C341.733 481.192 342.103 481.075 342.399 480.842C342.698 480.606 342.923 480.288 343.072 479.89C343.225 479.489 343.301 479.043 343.301 478.553C343.301 478.068 343.226 477.631 343.077 477.242C342.93 476.85 342.707 476.54 342.408 476.313C342.112 476.082 341.739 475.967 341.29 475.967C340.859 475.967 340.497 476.076 340.204 476.295C339.911 476.51 339.689 476.813 339.54 477.202C339.39 477.588 339.315 478.038 339.315 478.553ZM348.867 482.144C348.203 482.144 347.63 481.997 347.148 481.704C346.669 481.407 346.3 480.995 346.039 480.465C345.782 479.932 345.653 479.313 345.653 478.607C345.653 477.9 345.782 477.278 346.039 476.739C346.3 476.198 346.662 475.776 347.125 475.474C347.592 475.168 348.137 475.016 348.759 475.016C349.118 475.016 349.473 475.076 349.823 475.195C350.173 475.315 350.492 475.509 350.779 475.779C351.066 476.045 351.295 476.398 351.466 476.838C351.637 477.278 351.722 477.82 351.722 478.463V478.912H346.407V477.996H350.645C350.645 477.607 350.567 477.26 350.411 476.955C350.258 476.65 350.04 476.409 349.756 476.232C349.474 476.056 349.142 475.967 348.759 475.967C348.337 475.967 347.972 476.072 347.664 476.281C347.359 476.488 347.124 476.757 346.959 477.089C346.795 477.422 346.712 477.778 346.712 478.158V478.768C346.712 479.289 346.802 479.73 346.982 480.092C347.164 480.451 347.417 480.725 347.74 480.914C348.064 481.099 348.439 481.192 348.867 481.192C349.145 481.192 349.397 481.153 349.621 481.075C349.849 480.995 350.045 480.875 350.209 480.716C350.374 480.555 350.501 480.354 350.591 480.115L351.614 480.402C351.506 480.749 351.325 481.054 351.071 481.318C350.817 481.578 350.502 481.782 350.128 481.928C349.754 482.072 349.334 482.144 348.867 482.144ZM355.937 482.144C355.362 482.144 354.855 481.999 354.415 481.708C353.975 481.415 353.631 481.002 353.383 480.469C353.134 479.934 353.01 479.301 353.01 478.571C353.01 477.847 353.134 477.218 353.383 476.685C353.631 476.153 353.977 475.741 354.419 475.451C354.862 475.161 355.374 475.016 355.955 475.016C356.403 475.016 356.758 475.09 357.018 475.24C357.282 475.387 357.482 475.554 357.62 475.743C357.761 475.928 357.87 476.081 357.948 476.201H358.037V472.807H359.097V482H358.073V480.941H357.948C357.87 481.066 357.759 481.225 357.615 481.416C357.472 481.605 357.267 481.774 357 481.924C356.734 482.07 356.38 482.144 355.937 482.144ZM356.08 481.192C356.505 481.192 356.864 481.081 357.158 480.86C357.451 480.635 357.674 480.326 357.826 479.931C357.979 479.533 358.055 479.073 358.055 478.553C358.055 478.038 357.98 477.588 357.831 477.202C357.681 476.813 357.46 476.51 357.167 476.295C356.873 476.076 356.511 475.967 356.08 475.967C355.631 475.967 355.257 476.082 354.958 476.313C354.662 476.54 354.439 476.85 354.289 477.242C354.143 477.631 354.069 478.068 354.069 478.553C354.069 479.043 354.144 479.489 354.294 479.89C354.446 480.288 354.671 480.606 354.967 480.842C355.266 481.075 355.637 481.192 356.08 481.192ZM364.38 473.795V472.807H371.274V473.795H368.384V482H367.27V473.795H364.38ZM374.74 482.144C374.075 482.144 373.502 481.997 373.02 481.704C372.542 481.407 372.172 480.995 371.912 480.465C371.654 479.932 371.526 479.313 371.526 478.607C371.526 477.9 371.654 477.278 371.912 476.739C372.172 476.198 372.534 475.776 372.998 475.474C373.465 475.168 374.009 475.016 374.632 475.016C374.991 475.016 375.345 475.076 375.696 475.195C376.046 475.315 376.364 475.509 376.652 475.779C376.939 476.045 377.168 476.398 377.338 476.838C377.509 477.278 377.594 477.82 377.594 478.463V478.912H372.28V477.996H376.517C376.517 477.607 376.439 477.26 376.284 476.955C376.131 476.65 375.913 476.409 375.628 476.232C375.347 476.056 375.015 475.967 374.632 475.967C374.21 475.967 373.845 476.072 373.537 476.281C373.231 476.488 372.996 476.757 372.832 477.089C372.667 477.422 372.585 477.778 372.585 478.158V478.768C372.585 479.289 372.675 479.73 372.854 480.092C373.037 480.451 373.29 480.725 373.613 480.914C373.936 481.099 374.312 481.192 374.74 481.192C375.018 481.192 375.269 481.153 375.494 481.075C375.721 480.995 375.917 480.875 376.082 480.716C376.246 480.555 376.373 480.354 376.463 480.115L377.487 480.402C377.379 480.749 377.198 481.054 376.943 481.318C376.689 481.578 376.375 481.782 376.001 481.928C375.627 482.072 375.206 482.144 374.74 482.144ZM379.811 475.105L381.462 477.924L383.114 475.105H384.335L382.109 478.553L384.335 482H383.114L381.462 479.325L379.811 482H378.59L380.78 478.553L378.59 475.105H379.811ZM388.845 475.105V476.003H385.272V475.105H388.845ZM386.313 473.454H387.373V480.025C387.373 480.324 387.416 480.549 387.503 480.698C387.593 480.845 387.706 480.944 387.844 480.995C387.985 481.042 388.133 481.066 388.288 481.066C388.405 481.066 388.501 481.06 388.576 481.048C388.651 481.033 388.71 481.021 388.755 481.012L388.971 481.964C388.899 481.991 388.799 482.018 388.67 482.045C388.541 482.075 388.378 482.09 388.181 482.09C387.881 482.09 387.588 482.025 387.301 481.897C387.017 481.768 386.78 481.572 386.592 481.309C386.406 481.045 386.313 480.713 386.313 480.312V473.454Z" fill="#8D97A4"/>
<path d="M269.5 498C269.5 495.791 271.291 494 273.5 494H322.5V526H273.5C271.291 526 269.5 524.209 269.5 522V498Z" fill="#CDD2DB"/>
<path d="M280.51 515V505.807H281.897V513.806H286.062V515H280.51ZM289.543 515.153C289.106 515.153 288.711 515.072 288.358 514.91C288.005 514.746 287.725 514.508 287.519 514.197C287.315 513.885 287.214 513.504 287.214 513.052C287.214 512.663 287.289 512.343 287.438 512.091C287.588 511.84 287.79 511.641 288.044 511.494C288.298 511.348 288.583 511.237 288.897 511.162C289.211 511.087 289.531 511.031 289.858 510.992C290.27 510.944 290.606 510.905 290.863 510.875C291.12 510.842 291.307 510.79 291.424 510.718C291.541 510.646 291.599 510.529 291.599 510.368V510.336C291.599 509.944 291.488 509.641 291.267 509.425C291.049 509.21 290.722 509.102 290.288 509.102C289.837 509.102 289.48 509.202 289.22 509.403C288.963 509.6 288.785 509.82 288.686 510.062L287.425 509.775C287.574 509.356 287.793 509.018 288.08 508.761C288.37 508.5 288.704 508.312 289.081 508.195C289.458 508.076 289.855 508.016 290.27 508.016C290.546 508.016 290.838 508.049 291.146 508.114C291.457 508.177 291.747 508.294 292.017 508.465C292.289 508.635 292.512 508.879 292.685 509.196C292.859 509.51 292.946 509.919 292.946 510.422V515H291.635V514.057H291.581C291.494 514.231 291.364 514.402 291.191 514.569C291.017 514.737 290.794 514.876 290.522 514.987C290.25 515.097 289.923 515.153 289.543 515.153ZM289.835 514.075C290.206 514.075 290.523 514.002 290.787 513.855C291.053 513.709 291.255 513.517 291.393 513.281C291.533 513.041 291.604 512.786 291.604 512.513V511.625C291.556 511.672 291.463 511.717 291.325 511.759C291.191 511.798 291.037 511.833 290.863 511.862C290.689 511.889 290.52 511.915 290.356 511.939C290.191 511.96 290.054 511.978 289.943 511.993C289.682 512.026 289.445 512.081 289.229 512.159C289.017 512.236 288.846 512.349 288.717 512.495C288.592 512.639 288.529 512.83 288.529 513.07C288.529 513.402 288.652 513.653 288.897 513.824C289.142 513.992 289.455 514.075 289.835 514.075ZM294.841 515V505.807H296.183V509.223H296.264C296.342 509.079 296.454 508.913 296.601 508.725C296.747 508.536 296.951 508.372 297.211 508.231C297.471 508.087 297.816 508.016 298.243 508.016C298.8 508.016 299.297 508.156 299.734 508.438C300.171 508.719 300.513 509.124 300.762 509.654C301.013 510.184 301.139 510.821 301.139 511.566C301.139 512.311 301.014 512.95 300.766 513.483C300.518 514.012 300.177 514.421 299.743 514.708C299.309 514.993 298.813 515.135 298.257 515.135C297.838 515.135 297.495 515.064 297.229 514.924C296.966 514.783 296.759 514.618 296.61 514.43C296.46 514.241 296.345 514.074 296.264 513.927H296.152V515H294.841ZM296.156 511.553C296.156 512.037 296.227 512.462 296.367 512.827C296.508 513.193 296.711 513.478 296.978 513.685C297.244 513.888 297.57 513.99 297.956 513.99C298.357 513.99 298.692 513.884 298.962 513.671C299.231 513.456 299.434 513.164 299.572 512.796C299.713 512.428 299.783 512.014 299.783 511.553C299.783 511.098 299.714 510.689 299.577 510.327C299.442 509.965 299.238 509.679 298.966 509.47C298.697 509.261 298.36 509.156 297.956 509.156C297.567 509.156 297.238 509.256 296.969 509.457C296.702 509.657 296.5 509.937 296.363 510.296C296.225 510.655 296.156 511.074 296.156 511.553ZM305.617 515.139C304.938 515.139 304.353 514.994 303.862 514.704C303.374 514.41 302.997 513.999 302.731 513.469C302.468 512.937 302.336 512.313 302.336 511.598C302.336 510.891 302.468 510.269 302.731 509.73C302.997 509.192 303.368 508.771 303.844 508.469C304.323 508.167 304.882 508.016 305.523 508.016C305.912 508.016 306.289 508.08 306.654 508.209C307.019 508.337 307.347 508.539 307.637 508.815C307.927 509.09 308.156 509.448 308.324 509.887C308.491 510.324 308.575 510.855 308.575 511.481V511.957H303.095V510.951H307.26C307.26 510.598 307.188 510.285 307.045 510.013C306.901 509.738 306.699 509.521 306.439 509.362C306.181 509.204 305.879 509.124 305.532 509.124C305.155 509.124 304.826 509.217 304.544 509.403C304.266 509.585 304.051 509.825 303.898 510.121C303.748 510.414 303.674 510.733 303.674 511.077V511.862C303.674 512.323 303.754 512.715 303.916 513.038C304.081 513.362 304.309 513.609 304.603 513.779C304.896 513.947 305.239 514.03 305.631 514.03C305.885 514.03 306.117 513.995 306.326 513.923C306.536 513.848 306.717 513.737 306.869 513.591C307.022 513.444 307.139 513.263 307.22 513.047L308.49 513.276C308.388 513.65 308.206 513.978 307.942 514.259C307.682 514.538 307.354 514.755 306.959 514.91C306.567 515.063 306.12 515.139 305.617 515.139ZM311.406 505.807V515H310.064V505.807H311.406Z" fill="#353C43"/>
<mask id="path-18-inside-1_4539_4273" fill="white">
<path d="M322.5 494H375.5V526H322.5V494Z"/>
</mask>
<path d="M322.5 494H375.5V526H322.5V494Z" fill="#CDD2DB"/>
<path d="M333.51 515V505.807H334.897V513.806H339.062V515H333.51ZM342.543 515.153C342.106 515.153 341.711 515.072 341.358 514.91C341.005 514.746 340.725 514.508 340.519 514.197C340.315 513.885 340.214 513.504 340.214 513.052C340.214 512.663 340.289 512.343 340.438 512.091C340.588 511.84 340.79 511.641 341.044 511.494C341.298 511.348 341.583 511.237 341.897 511.162C342.211 511.087 342.531 511.031 342.858 510.992C343.27 510.944 343.606 510.905 343.863 510.875C344.12 510.842 344.307 510.79 344.424 510.718C344.541 510.646 344.599 510.529 344.599 510.368V510.336C344.599 509.944 344.488 509.641 344.267 509.425C344.049 509.21 343.722 509.102 343.288 509.102C342.837 509.102 342.48 509.202 342.22 509.403C341.963 509.6 341.785 509.82 341.686 510.062L340.425 509.775C340.574 509.356 340.793 509.018 341.08 508.761C341.37 508.5 341.704 508.312 342.081 508.195C342.458 508.076 342.855 508.016 343.27 508.016C343.546 508.016 343.838 508.049 344.146 508.114C344.457 508.177 344.747 508.294 345.017 508.465C345.289 508.635 345.512 508.879 345.685 509.196C345.859 509.51 345.946 509.919 345.946 510.422V515H344.635V514.057H344.581C344.494 514.231 344.364 514.402 344.191 514.569C344.017 514.737 343.794 514.876 343.522 514.987C343.25 515.097 342.923 515.153 342.543 515.153ZM342.835 514.075C343.206 514.075 343.523 514.002 343.787 513.855C344.053 513.709 344.255 513.517 344.393 513.281C344.533 513.041 344.604 512.786 344.604 512.513V511.625C344.556 511.672 344.463 511.717 344.325 511.759C344.191 511.798 344.037 511.833 343.863 511.862C343.689 511.889 343.52 511.915 343.356 511.939C343.191 511.96 343.054 511.978 342.943 511.993C342.682 512.026 342.445 512.081 342.229 512.159C342.017 512.236 341.846 512.349 341.717 512.495C341.592 512.639 341.529 512.83 341.529 513.07C341.529 513.402 341.652 513.653 341.897 513.824C342.142 513.992 342.455 514.075 342.835 514.075ZM347.841 515V505.807H349.183V509.223H349.264C349.342 509.079 349.454 508.913 349.601 508.725C349.747 508.536 349.951 508.372 350.211 508.231C350.471 508.087 350.816 508.016 351.243 508.016C351.8 508.016 352.297 508.156 352.734 508.438C353.171 508.719 353.513 509.124 353.762 509.654C354.013 510.184 354.139 510.821 354.139 511.566C354.139 512.311 354.014 512.95 353.766 513.483C353.518 514.012 353.177 514.421 352.743 514.708C352.309 514.993 351.813 515.135 351.257 515.135C350.838 515.135 350.495 515.064 350.229 514.924C349.966 514.783 349.759 514.618 349.61 514.43C349.46 514.241 349.345 514.074 349.264 513.927H349.152V515H347.841ZM349.156 511.553C349.156 512.037 349.227 512.462 349.367 512.827C349.508 513.193 349.711 513.478 349.978 513.685C350.244 513.888 350.57 513.99 350.956 513.99C351.357 513.99 351.692 513.884 351.962 513.671C352.231 513.456 352.434 513.164 352.572 512.796C352.713 512.428 352.783 512.014 352.783 511.553C352.783 511.098 352.714 510.689 352.577 510.327C352.442 509.965 352.238 509.679 351.966 509.47C351.697 509.261 351.36 509.156 350.956 509.156C350.567 509.156 350.238 509.256 349.969 509.457C349.702 509.657 349.5 509.937 349.363 510.296C349.225 510.655 349.156 511.074 349.156 511.553ZM358.617 515.139C357.938 515.139 357.353 514.994 356.862 514.704C356.374 514.41 355.997 513.999 355.731 513.469C355.468 512.937 355.336 512.313 355.336 511.598C355.336 510.891 355.468 510.269 355.731 509.73C355.997 509.192 356.368 508.771 356.844 508.469C357.323 508.167 357.882 508.016 358.523 508.016C358.912 508.016 359.289 508.08 359.654 508.209C360.019 508.337 360.347 508.539 360.637 508.815C360.927 509.09 361.156 509.448 361.324 509.887C361.491 510.324 361.575 510.855 361.575 511.481V511.957H356.095V510.951H360.26C360.26 510.598 360.188 510.285 360.045 510.013C359.901 509.738 359.699 509.521 359.439 509.362C359.181 509.204 358.879 509.124 358.532 509.124C358.155 509.124 357.826 509.217 357.544 509.403C357.266 509.585 357.051 509.825 356.898 510.121C356.748 510.414 356.674 510.733 356.674 511.077V511.862C356.674 512.323 356.754 512.715 356.916 513.038C357.081 513.362 357.309 513.609 357.603 513.779C357.896 513.947 358.239 514.03 358.631 514.03C358.885 514.03 359.117 513.995 359.326 513.923C359.536 513.848 359.717 513.737 359.869 513.591C360.022 513.444 360.139 513.263 360.22 513.047L361.49 513.276C361.388 513.65 361.206 513.978 360.942 514.259C360.682 514.538 360.354 514.755 359.959 514.91C359.567 515.063 359.12 515.139 358.617 515.139ZM364.406 505.807V515H363.064V505.807H364.406Z" fill="#353C43"/>
<path d="M323.5 494C323.5 493.448 323.052 493 322.5 493C321.948 493 321.5 493.448 321.5 494H323.5ZM376.5 494C376.5 493.448 376.052 493 375.5 493C374.948 493 374.5 493.448 374.5 494H376.5ZM374.5 526C374.5 526.552 374.948 527 375.5 527C376.052 527 376.5 526.552 376.5 526H374.5ZM321.5 526C321.5 526.552 321.948 527 322.5 527C323.052 527 323.5 526.552 323.5 526H321.5ZM374.5 494V526H376.5V494H374.5ZM323.5 526V494H321.5V526H323.5Z" fill="white" mask="url(#path-18-inside-1_4539_4273)"/>
<path d="M375.5 494H424.5C426.709 494 428.5 495.791 428.5 498V522C428.5 524.209 426.709 526 424.5 526H375.5V494Z" fill="#CDD2DB"/>
<path d="M386.51 515V505.807H387.897V513.806H392.062V515H386.51ZM395.543 515.153C395.106 515.153 394.711 515.072 394.358 514.91C394.005 514.746 393.725 514.508 393.519 514.197C393.315 513.885 393.214 513.504 393.214 513.052C393.214 512.663 393.289 512.343 393.438 512.091C393.588 511.84 393.79 511.641 394.044 511.494C394.298 511.348 394.583 511.237 394.897 511.162C395.211 511.087 395.531 511.031 395.858 510.992C396.27 510.944 396.606 510.905 396.863 510.875C397.12 510.842 397.307 510.79 397.424 510.718C397.541 510.646 397.599 510.529 397.599 510.368V510.336C397.599 509.944 397.488 509.641 397.267 509.425C397.049 509.21 396.722 509.102 396.288 509.102C395.837 509.102 395.48 509.202 395.22 509.403C394.963 509.6 394.785 509.82 394.686 510.062L393.425 509.775C393.574 509.356 393.793 509.018 394.08 508.761C394.37 508.5 394.704 508.312 395.081 508.195C395.458 508.076 395.855 508.016 396.27 508.016C396.546 508.016 396.838 508.049 397.146 508.114C397.457 508.177 397.747 508.294 398.017 508.465C398.289 508.635 398.512 508.879 398.685 509.196C398.859 509.51 398.946 509.919 398.946 510.422V515H397.635V514.057H397.581C397.494 514.231 397.364 514.402 397.191 514.569C397.017 514.737 396.794 514.876 396.522 514.987C396.25 515.097 395.923 515.153 395.543 515.153ZM395.835 514.075C396.206 514.075 396.523 514.002 396.787 513.855C397.053 513.709 397.255 513.517 397.393 513.281C397.533 513.041 397.604 512.786 397.604 512.513V511.625C397.556 511.672 397.463 511.717 397.325 511.759C397.191 511.798 397.037 511.833 396.863 511.862C396.689 511.889 396.52 511.915 396.356 511.939C396.191 511.96 396.054 511.978 395.943 511.993C395.682 512.026 395.445 512.081 395.229 512.159C395.017 512.236 394.846 512.349 394.717 512.495C394.592 512.639 394.529 512.83 394.529 513.07C394.529 513.402 394.652 513.653 394.897 513.824C395.142 513.992 395.455 514.075 395.835 514.075ZM400.841 515V505.807H402.183V509.223H402.264C402.342 509.079 402.454 508.913 402.601 508.725C402.747 508.536 402.951 508.372 403.211 508.231C403.471 508.087 403.816 508.016 404.243 508.016C404.8 508.016 405.297 508.156 405.734 508.438C406.171 508.719 406.513 509.124 406.762 509.654C407.013 510.184 407.139 510.821 407.139 511.566C407.139 512.311 407.014 512.95 406.766 513.483C406.518 514.012 406.177 514.421 405.743 514.708C405.309 514.993 404.813 515.135 404.257 515.135C403.838 515.135 403.495 515.064 403.229 514.924C402.966 514.783 402.759 514.618 402.61 514.43C402.46 514.241 402.345 514.074 402.264 513.927H402.152V515H400.841ZM402.156 511.553C402.156 512.037 402.227 512.462 402.367 512.827C402.508 513.193 402.711 513.478 402.978 513.685C403.244 513.888 403.57 513.99 403.956 513.99C404.357 513.99 404.692 513.884 404.962 513.671C405.231 513.456 405.434 513.164 405.572 512.796C405.713 512.428 405.783 512.014 405.783 511.553C405.783 511.098 405.714 510.689 405.577 510.327C405.442 509.965 405.238 509.679 404.966 509.47C404.697 509.261 404.36 509.156 403.956 509.156C403.567 509.156 403.238 509.256 402.969 509.457C402.702 509.657 402.5 509.937 402.363 510.296C402.225 510.655 402.156 511.074 402.156 511.553ZM411.617 515.139C410.938 515.139 410.353 514.994 409.862 514.704C409.374 514.41 408.997 513.999 408.731 513.469C408.468 512.937 408.336 512.313 408.336 511.598C408.336 510.891 408.468 510.269 408.731 509.73C408.997 509.192 409.368 508.771 409.844 508.469C410.323 508.167 410.882 508.016 411.523 508.016C411.912 508.016 412.289 508.08 412.654 508.209C413.019 508.337 413.347 508.539 413.637 508.815C413.927 509.09 414.156 509.448 414.324 509.887C414.491 510.324 414.575 510.855 414.575 511.481V511.957H409.095V510.951H413.26C413.26 510.598 413.188 510.285 413.045 510.013C412.901 509.738 412.699 509.521 412.439 509.362C412.181 509.204 411.879 509.124 411.532 509.124C411.155 509.124 410.826 509.217 410.544 509.403C410.266 509.585 410.051 509.825 409.898 510.121C409.748 510.414 409.674 510.733 409.674 511.077V511.862C409.674 512.323 409.754 512.715 409.916 513.038C410.081 513.362 410.309 513.609 410.603 513.779C410.896 513.947 411.239 514.03 411.631 514.03C411.885 514.03 412.117 513.995 412.326 513.923C412.536 513.848 412.717 513.737 412.869 513.591C413.022 513.444 413.139 513.263 413.22 513.047L414.49 513.276C414.388 513.65 414.206 513.978 413.942 514.259C413.682 514.538 413.354 514.755 412.959 514.91C412.567 515.063 412.12 515.139 411.617 515.139ZM417.406 505.807V515H416.064V505.807H417.406Z" fill="#353C43"/>
<path d="M316.107 580.68C316.009 580.378 315.878 580.107 315.717 579.868C315.558 579.625 315.368 579.419 315.147 579.248C314.928 579.078 314.68 578.947 314.402 578.858C314.123 578.768 313.818 578.723 313.486 578.723C312.941 578.723 312.446 578.864 312 579.145C311.554 579.426 311.2 579.841 310.936 580.388C310.673 580.936 310.541 581.608 310.541 582.404C310.541 583.2 310.675 583.871 310.941 584.419C311.207 584.967 311.568 585.381 312.023 585.662C312.477 585.944 312.989 586.084 313.558 586.084C314.084 586.084 314.548 585.972 314.949 585.748C315.353 585.52 315.667 585.2 315.892 584.787C316.119 584.371 316.233 583.882 316.233 583.319L316.574 583.391H313.809V582.404H317.31V583.391C317.31 584.148 317.149 584.807 316.825 585.366C316.505 585.926 316.062 586.36 315.497 586.668C314.934 586.973 314.288 587.126 313.558 587.126C312.744 587.126 312.029 586.934 311.412 586.551C310.799 586.168 310.32 585.623 309.976 584.917C309.635 584.211 309.464 583.373 309.464 582.404C309.464 581.676 309.561 581.023 309.756 580.442C309.953 579.859 310.232 579.362 310.591 578.952C310.95 578.542 311.375 578.228 311.866 578.009C312.356 577.791 312.896 577.682 313.486 577.682C313.971 577.682 314.423 577.755 314.841 577.902C315.263 578.045 315.639 578.25 315.968 578.516C316.3 578.78 316.577 579.096 316.799 579.464C317.02 579.829 317.173 580.234 317.256 580.68H316.107ZM319.073 587V580.105H320.097V581.147H320.168C320.294 580.806 320.521 580.529 320.851 580.316C321.18 580.104 321.551 579.998 321.964 579.998C322.042 579.998 322.139 579.999 322.256 580.002C322.372 580.005 322.461 580.01 322.52 580.016V581.093C322.485 581.084 322.402 581.071 322.274 581.053C322.148 581.032 322.015 581.021 321.874 581.021C321.539 581.021 321.24 581.091 320.976 581.232C320.716 581.37 320.51 581.561 320.357 581.807C320.207 582.049 320.132 582.326 320.132 582.637V587H319.073ZM326.367 587.144C325.745 587.144 325.199 586.996 324.729 586.699C324.262 586.403 323.897 585.989 323.634 585.456C323.373 584.923 323.243 584.301 323.243 583.589C323.243 582.87 323.373 582.244 323.634 581.708C323.897 581.172 324.262 580.756 324.729 580.46C325.199 580.164 325.745 580.016 326.367 580.016C326.99 580.016 327.534 580.164 328.001 580.46C328.471 580.756 328.836 581.172 329.096 581.708C329.36 582.244 329.491 582.87 329.491 583.589C329.491 584.301 329.36 584.923 329.096 585.456C328.836 585.989 328.471 586.403 328.001 586.699C327.534 586.996 326.99 587.144 326.367 587.144ZM326.367 586.192C326.84 586.192 327.229 586.071 327.534 585.828C327.839 585.586 328.065 585.267 328.212 584.872C328.359 584.477 328.432 584.049 328.432 583.589C328.432 583.128 328.359 582.698 328.212 582.3C328.065 581.902 327.839 581.581 327.534 581.335C327.229 581.09 326.84 580.967 326.367 580.967C325.894 580.967 325.505 581.09 325.2 581.335C324.895 581.581 324.669 581.902 324.522 582.3C324.376 582.698 324.302 583.128 324.302 583.589C324.302 584.049 324.376 584.477 324.522 584.872C324.669 585.267 324.895 585.586 325.2 585.828C325.505 586.071 325.894 586.192 326.367 586.192ZM335.453 584.181V580.105H336.513V587H335.453V585.833H335.381C335.22 586.183 334.969 586.481 334.627 586.726C334.286 586.969 333.855 587.09 333.335 587.09C332.904 587.09 332.521 586.996 332.186 586.807C331.85 586.615 331.587 586.328 331.396 585.945C331.204 585.559 331.108 585.073 331.108 584.486V580.105H332.168V584.415C332.168 584.917 332.308 585.318 332.59 585.617C332.874 585.917 333.236 586.066 333.676 586.066C333.939 586.066 334.207 585.999 334.479 585.864C334.755 585.73 334.985 585.523 335.171 585.245C335.359 584.967 335.453 584.612 335.453 584.181ZM338.453 589.585V580.105H339.476V581.201H339.602C339.68 581.081 339.787 580.928 339.925 580.743C340.066 580.554 340.266 580.387 340.527 580.24C340.79 580.09 341.146 580.016 341.595 580.016C342.175 580.016 342.687 580.161 343.13 580.451C343.573 580.741 343.918 581.153 344.167 581.685C344.415 582.218 344.539 582.847 344.539 583.571C344.539 584.301 344.415 584.934 344.167 585.469C343.918 586.002 343.574 586.415 343.134 586.708C342.695 586.999 342.187 587.144 341.613 587.144C341.17 587.144 340.815 587.07 340.549 586.924C340.283 586.774 340.078 586.605 339.934 586.416C339.79 586.225 339.68 586.066 339.602 585.941H339.512V589.585H338.453ZM339.494 583.553C339.494 584.073 339.57 584.533 339.723 584.931C339.876 585.326 340.099 585.635 340.392 585.86C340.685 586.081 341.044 586.192 341.469 586.192C341.912 586.192 342.282 586.075 342.578 585.842C342.877 585.606 343.102 585.288 343.251 584.89C343.404 584.489 343.48 584.043 343.48 583.553C343.48 583.068 343.405 582.631 343.256 582.242C343.109 581.85 342.886 581.54 342.587 581.313C342.291 581.082 341.918 580.967 341.469 580.967C341.038 580.967 340.676 581.076 340.383 581.295C340.09 581.51 339.868 581.813 339.719 582.202C339.569 582.588 339.494 583.038 339.494 583.553ZM349.046 587.144C348.382 587.144 347.809 586.997 347.327 586.704C346.848 586.407 346.479 585.995 346.218 585.465C345.961 584.932 345.832 584.313 345.832 583.607C345.832 582.9 345.961 582.278 346.218 581.739C346.479 581.198 346.841 580.776 347.304 580.474C347.771 580.168 348.316 580.016 348.938 580.016C349.297 580.016 349.652 580.076 350.002 580.195C350.352 580.315 350.671 580.509 350.958 580.779C351.245 581.045 351.474 581.398 351.645 581.838C351.815 582.278 351.901 582.82 351.901 583.463V583.912H346.586V582.996H350.824C350.824 582.607 350.746 582.26 350.59 581.955C350.437 581.65 350.219 581.409 349.935 581.232C349.653 581.056 349.321 580.967 348.938 580.967C348.516 580.967 348.151 581.072 347.843 581.281C347.538 581.488 347.303 581.757 347.138 582.089C346.974 582.422 346.891 582.778 346.891 583.158V583.768C346.891 584.289 346.981 584.73 347.161 585.092C347.343 585.451 347.596 585.725 347.919 585.914C348.243 586.099 348.618 586.192 349.046 586.192C349.324 586.192 349.576 586.153 349.8 586.075C350.028 585.995 350.224 585.875 350.388 585.716C350.553 585.555 350.68 585.354 350.77 585.115L351.793 585.402C351.685 585.749 351.504 586.054 351.25 586.318C350.996 586.578 350.681 586.782 350.307 586.928C349.933 587.072 349.513 587.144 349.046 587.144ZM356.116 587.144C355.541 587.144 355.034 586.999 354.594 586.708C354.154 586.415 353.81 586.002 353.562 585.469C353.313 584.934 353.189 584.301 353.189 583.571C353.189 582.847 353.313 582.218 353.562 581.685C353.81 581.153 354.156 580.741 354.598 580.451C355.041 580.161 355.553 580.016 356.134 580.016C356.582 580.016 356.937 580.09 357.197 580.24C357.461 580.387 357.661 580.554 357.799 580.743C357.939 580.928 358.049 581.081 358.127 581.201H358.216V577.807H359.276V587H358.252V585.941H358.127C358.049 586.066 357.938 586.225 357.794 586.416C357.651 586.605 357.446 586.774 357.179 586.924C356.913 587.07 356.558 587.144 356.116 587.144ZM356.259 586.192C356.684 586.192 357.043 586.081 357.337 585.86C357.63 585.635 357.853 585.326 358.005 584.931C358.158 584.533 358.234 584.073 358.234 583.553C358.234 583.038 358.159 582.588 358.01 582.202C357.86 581.813 357.639 581.51 357.345 581.295C357.052 581.076 356.69 580.967 356.259 580.967C355.81 580.967 355.436 581.082 355.137 581.313C354.841 581.54 354.618 581.85 354.468 582.242C354.322 582.631 354.248 583.068 354.248 583.553C354.248 584.043 354.323 584.489 354.473 584.89C354.625 585.288 354.85 585.606 355.146 585.842C355.445 586.075 355.816 586.192 356.259 586.192ZM366.175 577.807V587H365.061V577.807H366.175ZM371.064 587.144C370.418 587.144 369.861 586.991 369.394 586.686C368.927 586.381 368.568 585.96 368.317 585.424C368.065 584.889 367.94 584.277 367.94 583.589C367.94 582.888 368.068 582.27 368.326 581.735C368.586 581.196 368.948 580.776 369.412 580.474C369.879 580.168 370.424 580.016 371.046 580.016C371.531 580.016 371.968 580.105 372.357 580.285C372.746 580.465 373.064 580.716 373.313 581.039C373.561 581.362 373.715 581.739 373.775 582.17H372.716C372.635 581.856 372.455 581.578 372.177 581.335C371.902 581.09 371.531 580.967 371.064 580.967C370.651 580.967 370.289 581.075 369.978 581.29C369.669 581.503 369.429 581.804 369.255 582.193C369.084 582.579 368.999 583.032 368.999 583.553C368.999 584.085 369.083 584.549 369.25 584.944C369.421 585.339 369.66 585.646 369.969 585.864C370.28 586.083 370.645 586.192 371.064 586.192C371.339 586.192 371.589 586.144 371.813 586.048C372.038 585.953 372.228 585.815 372.384 585.635C372.539 585.456 372.65 585.24 372.716 584.989H373.775C373.715 585.396 373.567 585.763 373.331 586.089C373.097 586.412 372.788 586.669 372.402 586.861C372.018 587.049 371.573 587.144 371.064 587.144ZM378.125 587.144C377.502 587.144 376.956 586.996 376.486 586.699C376.019 586.403 375.654 585.989 375.391 585.456C375.131 584.923 375 584.301 375 583.589C375 582.87 375.131 582.244 375.391 581.708C375.654 581.172 376.019 580.756 376.486 580.46C376.956 580.164 377.502 580.016 378.125 580.016C378.747 580.016 379.292 580.164 379.758 580.46C380.228 580.756 380.593 581.172 380.854 581.708C381.117 582.244 381.249 582.87 381.249 583.589C381.249 584.301 381.117 584.923 380.854 585.456C380.593 585.989 380.228 586.403 379.758 586.699C379.292 586.996 378.747 587.144 378.125 587.144ZM378.125 586.192C378.597 586.192 378.986 586.071 379.292 585.828C379.597 585.586 379.823 585.267 379.969 584.872C380.116 584.477 380.189 584.049 380.189 583.589C380.189 583.128 380.116 582.698 379.969 582.3C379.823 581.902 379.597 581.581 379.292 581.335C378.986 581.09 378.597 580.967 378.125 580.967C377.652 580.967 377.263 581.09 376.957 581.335C376.652 581.581 376.426 581.902 376.28 582.3C376.133 582.698 376.06 583.128 376.06 583.589C376.06 584.049 376.133 584.477 376.28 584.872C376.426 585.267 376.652 585.586 376.957 585.828C377.263 586.071 377.652 586.192 378.125 586.192ZM383.925 582.852V587H382.866V580.105H383.889V581.183H383.979C384.14 580.833 384.386 580.551 384.715 580.339C385.044 580.123 385.469 580.016 385.99 580.016C386.457 580.016 386.865 580.111 387.215 580.303C387.565 580.491 387.838 580.779 388.032 581.165C388.227 581.548 388.324 582.033 388.324 582.619V587H387.265V582.691C387.265 582.149 387.124 581.727 386.843 581.425C386.561 581.12 386.175 580.967 385.685 580.967C385.346 580.967 385.044 581.041 384.778 581.187C384.514 581.334 384.306 581.548 384.154 581.829C384.001 582.11 383.925 582.452 383.925 582.852Z" fill="#8D97A4"/>
<path d="M317 603C317 600.791 318.791 599 321 599H349V631H321C318.791 631 317 629.209 317 627V603Z" fill="#CDD2DB"/>
<path fill-rule="evenodd" clip-rule="evenodd" d="M332.394 610.605C332.618 610.066 333.382 610.066 333.606 610.605L334.647 613.108L337.349 613.325C337.931 613.372 338.167 614.098 337.723 614.477L335.665 616.241L336.294 618.878C336.429 619.445 335.811 619.894 335.313 619.59L333 618.177L330.687 619.59C330.189 619.894 329.571 619.445 329.706 618.878L330.335 616.241L328.277 614.477C327.833 614.098 328.069 613.372 328.651 613.325L331.353 613.108L332.394 610.605Z" fill="#353C43"/>
<mask id="path-26-inside-2_4539_4273" fill="white">
<path d="M349 599H377C379.209 599 381 600.791 381 603V627C381 629.209 379.209 631 377 631H349V599Z"/>
</mask>
<path d="M349 599H377C379.209 599 381 600.791 381 603V627C381 629.209 379.209 631 377 631H349V599Z" fill="#CDD2DB"/>
<path fill-rule="evenodd" clip-rule="evenodd" d="M364.394 610.605C364.618 610.066 365.382 610.066 365.606 610.605L366.647 613.108L369.349 613.325C369.931 613.372 370.167 614.098 369.723 614.477L367.665 616.241L368.294 618.878C368.429 619.445 367.811 619.894 367.313 619.59L365 618.177L362.687 619.59C362.189 619.894 361.571 619.445 361.706 618.878L362.335 616.241L360.277 614.477C359.833 614.098 360.069 613.372 360.651 613.325L363.353 613.108L364.394 610.605Z" fill="#353C43"/>
<path d="M349 599H381H349ZM381 631H349H381ZM348 631V599H350V631H348ZM381 599V631V599Z" fill="white" mask="url(#path-26-inside-2_4539_4273)"/>
<rect x="1" y="1" width="696" height="678" rx="8" stroke="#4E5762" stroke-width="0.6" stroke-linecap="round" stroke-linejoin="round" stroke-dasharray="1 2"/>
</svg>
