<svg width="1413" height="1281" viewBox="0 0 1413 1281" fill="none" xmlns="http://www.w3.org/2000/svg">
<rect x="71.7838" y="543.189" width="9.51351" height="18.1622" rx="4.75676" fill="#D9D9D9"/>
<rect x="54.4865" y="531.081" width="0.864865" height="30.2703" fill="#65648C"/>
<rect x="64.8649" y="531.081" width="0.864865" height="30.2703" fill="#65648C"/>
<path d="M41.8935 593.315L40.2162 595.081L76.1081 590.757V558.757H53.8919C52.7873 558.757 51.8919 559.652 51.8919 560.757V561.946C51.8919 563.051 52.7873 563.946 53.8919 563.946H56.6486V581.676C51.1993 584.831 46.2304 588.75 41.8935 593.315Z" fill="#141428"/>
<path d="M115.027 599.405L103.784 590.757H76.1081V558.757H98.3243C99.4288 558.757 100.324 559.652 100.324 560.757V561.946C100.324 563.051 99.4288 563.946 98.3243 563.946H95.5675V581.676C102.049 584.212 107.621 588.633 111.564 594.369L115.027 599.405Z" fill="#65648C"/>
<path d="M0 1281L38.3746 602.323C38.7338 595.968 43.9912 591 50.3554 591H102.613C108.821 591 114.005 595.736 114.564 601.919L176 1281H0Z" fill="#262626"/>
<path d="M87.7391 999.023L76 750.831V591H102.431C108.638 591 113.821 595.734 114.382 601.916L176 1281H87.7391V999.023Z" fill="#D1D1D6"/>
<path d="M54 1281L65.375 591H89.875L131 1281H54Z" fill="#B3B3BC"/>
<path d="M102.652 531.081H48.6999C48.1908 531.081 47.7075 530.857 47.3788 530.468C46.4285 529.344 47.2277 527.622 48.6999 527.622H102.652C104.124 527.622 104.923 529.344 103.973 530.468C103.644 530.857 103.161 531.081 102.652 531.081Z" fill="#65648C"/>
<rect x="73.5135" y="492.162" width="5.18919" height="19.8919" rx="2.59459" fill="#141428"/>
<path d="M102.486 528.486C75.243 528.486 90.289 528.486 75.243 528.486C60.197 528.486 67.4592 528.486 47.9998 528.486C47.9998 516.545 60.197 506.865 75.243 506.865C90.289 506.865 102.486 516.545 102.486 528.486Z" fill="#141428"/>
<path d="M102.918 528.486C75.6748 528.486 90.7208 528.486 75.6748 528.486C75.6747 514.216 75.675 522.865 75.6749 513.784C75.6749 501.843 75.1941 519.838 75.6748 506.865C90.7208 506.865 102.918 516.545 102.918 528.486Z" fill="#64648C"/>
<rect x="71.7838" y="499.081" width="8.64865" height="1.72973" rx="0.864865" fill="#64648C"/>
<rect x="85.6216" y="529.351" width="0.864865" height="30.2703" fill="#65648C"/>
<rect x="76.1082" y="530.216" width="0.864865" height="30.2703" fill="#65648C"/>
<rect x="96.8649" y="531.081" width="0.864865" height="30.2703" fill="#65648C"/>
<g filter="url(#filter0_f_97_50)">
<path d="M78.7028 544.919L1386.81 26L1286.92 970.865L78.7028 555.297V544.919Z" fill="url(#paint0_linear_97_50)"/>
</g>
<defs>
<filter id="filter0_f_97_50" x="52.7028" y="0" width="1360.11" height="996.865" filterUnits="userSpaceOnUse" color-interpolation-filters="sRGB">
<feFlood flood-opacity="0" result="BackgroundImageFix"/>
<feBlend mode="normal" in="SourceGraphic" in2="BackgroundImageFix" result="shape"/>
<feGaussianBlur stdDeviation="13" result="effect1_foregroundBlur_97_50"/>
</filter>
<linearGradient id="paint0_linear_97_50" x1="78.7027" y1="549.243" x2="1550" y2="530" gradientUnits="userSpaceOnUse">
<stop stop-opacity="0.23"/>
<stop offset="0.673168" stop-color="white" stop-opacity="0.03"/>
</linearGradient>
</defs>
</svg>
