<svg width="158" height="32" viewBox="0 0 158 32" fill="none" xmlns="http://www.w3.org/2000/svg">
<path d="M6.24605 20.8121L0 9.99367L17.3095 0L6.24605 20.8121Z" fill="#FF3300"/>
<path d="M16.6722 23.8801L11.6129 15.1172L2.60815 32L16.6722 23.8801Z" fill="#FF3300"/>
<path d="M43.4832 24.9368C41.8569 24.9368 40.2671 24.7426 38.7137 24.3543C37.1602 23.9416 35.9223 23.4319 35 22.8251L36.8932 18.7474C37.767 19.3056 38.8229 19.7668 40.0608 20.1309C41.2987 20.4707 42.5123 20.6406 43.7016 20.6406C46.1046 20.6406 47.3061 20.0459 47.3061 18.8566C47.3061 18.2983 46.9784 17.8978 46.323 17.6551C45.6677 17.4124 44.6604 17.2061 43.3011 17.0362C41.6992 16.7935 40.3763 16.5143 39.3326 16.1988C38.2889 15.8832 37.3787 15.325 36.602 14.524C35.8495 13.723 35.4733 12.5822 35.4733 11.1016C35.4733 9.86372 35.8253 8.77146 36.5292 7.82484C37.2573 6.85395 38.301 6.1015 39.6603 5.56751C41.0438 5.03352 42.67 4.76653 44.539 4.76653C45.9225 4.76653 47.2939 4.92429 48.6532 5.23983C50.0367 5.5311 51.1775 5.94373 52.0756 6.47772L50.1823 10.5191C48.459 9.54818 46.5779 9.06273 44.539 9.06273C43.3254 9.06273 42.4152 9.23264 41.8084 9.57245C41.2016 9.91226 40.8982 10.3492 40.8982 10.8832C40.8982 11.49 41.2258 11.9147 41.8812 12.1574C42.5366 12.4002 43.5803 12.6308 45.0123 12.8492C46.6143 13.1162 47.925 13.4075 48.9444 13.723C49.9639 14.0143 50.8498 14.5604 51.6023 15.3614C52.3547 16.1624 52.7309 17.2789 52.7309 18.711C52.7309 19.9246 52.3668 21.0047 51.6387 21.9513C50.9105 22.8979 49.8425 23.6382 48.4347 24.1722C47.0512 24.682 45.4007 24.9368 43.4832 24.9368Z" fill="#012A38"/>
<path d="M68.0316 23.6989C67.4733 24.1116 66.7815 24.4271 65.9563 24.6455C65.1553 24.8397 64.3179 24.9368 63.4441 24.9368C61.0897 24.9368 59.2814 24.3421 58.0192 23.1528C56.7571 21.9635 56.126 20.2158 56.126 17.91V1.36681L61.8057 0V5.49469H66.648V9.86372H61.8057V17.8372C61.8057 18.6624 62.012 19.3056 62.4247 19.7668C62.8373 20.2037 63.432 20.4222 64.2087 20.4222C65.0825 20.4222 65.8592 20.1794 66.5388 19.694L68.0316 23.6989Z" fill="#012A38"/>
<path d="M71.2395 5.50924L76.9192 4.14606V24.6455H71.2395V5.50924Z" fill="#012A38"/>
<path d="M94.096 4.76653C96.5233 4.76653 98.4772 5.4947 99.9578 6.95103C101.463 8.40737 102.215 10.5676 102.215 13.4317V24.6455H96.5354V14.3055C96.5354 12.7521 96.1956 11.5992 95.516 10.8467C94.8363 10.07 93.8533 9.68168 92.5669 9.68168C91.1348 9.68168 89.994 10.1307 89.1445 11.0288C88.295 11.9026 87.8702 13.2133 87.8702 14.9609V24.6455H82.1905V5.45829L87.6153 4.14606V7.35152C88.3678 6.52627 89.3023 5.89519 90.4188 5.45829C91.5353 4.99711 92.7611 4.76653 94.096 4.76653Z" fill="#012A38"/>
<path d="M127.847 4.14606L127.784 21.3688C127.784 24.9611 126.849 27.631 124.98 29.3786C123.111 31.1262 120.38 32.0001 116.788 32.0001C114.895 32.0001 113.099 31.7695 111.4 31.3083C109.701 30.8471 108.293 30.1796 107.176 29.3058L109.434 25.2281C110.259 25.9077 111.303 26.4417 112.565 26.8301C113.827 27.2427 115.089 27.449 116.351 27.449C118.317 27.449 119.762 27 120.684 26.1019C121.631 25.2281 122.104 23.8931 122.104 22.097V21.2596C120.623 22.8858 118.56 23.6989 115.914 23.6989C114.118 23.6989 112.468 23.3106 110.963 22.5339C109.482 21.7329 108.305 20.6163 107.431 19.1843C106.557 17.7522 106.12 16.1017 106.12 14.2327C106.12 12.3638 106.557 10.7132 107.431 9.28118C108.305 7.84911 109.482 6.74472 110.963 5.96801C112.468 5.16702 114.118 4.76653 115.914 4.76653C118.754 4.76653 120.914 5.70101 122.395 7.56998V5.47507L127.847 4.14606ZM117.043 19.0386C118.548 19.0386 119.774 18.6017 120.72 17.7279C121.691 16.8299 122.177 15.6648 122.177 14.2327C122.177 12.8007 121.691 11.6477 120.72 10.7739C119.774 9.87585 118.548 9.42681 117.043 9.42681C115.538 9.42681 114.3 9.87585 113.329 10.7739C112.358 11.6477 111.873 12.8007 111.873 14.2327C111.873 15.6648 112.358 16.8299 113.329 17.7279C114.3 18.6017 115.538 19.0386 117.043 19.0386Z" fill="#012A38"/>
<path d="M143.748 24.5001C142.015 24.5001 140.576 24.1708 139.432 23.5121C138.288 22.8535 137.43 21.9348 136.858 20.7561C136.286 19.5601 136 18.1908 136 16.6481V5.07812H137.976V16.8821C137.976 18.0435 138.184 19.0575 138.6 19.9241C139.033 20.7908 139.675 21.4668 140.524 21.9521C141.391 22.4375 142.465 22.6801 143.748 22.6801C145.013 22.6801 146.071 22.4461 146.92 21.9781C147.769 21.4928 148.411 20.8168 148.844 19.9501C149.277 19.0661 149.494 18.0435 149.494 16.8821V5.07812H151.47V16.6481C151.47 18.1908 151.184 19.5601 150.612 20.7561C150.04 21.9348 149.182 22.8535 148.038 23.5121C146.911 24.1708 145.481 24.5001 143.748 24.5001Z" fill="#92A1A8"/>
<path d="M155.524 24.0581V5.07812H157.5V24.0581H155.524Z" fill="#92A1A8"/>
</svg>
