<svg width="120" height="34" viewBox="0 0 120 34" fill="none" xmlns="http://www.w3.org/2000/svg">
<path d="M18.0787 0L7.24848 22.0802L0.193359 11.4984L18.0787 0Z" fill="#FF3300"/>
<path d="M2.38414 34L11.7559 15.0385L15.679 23.1026L2.38414 34Z" fill="#FF3300"/>
<path d="M31.6706 24.2118C30.5666 24.2118 29.5026 24.0838 28.4786 23.8278C27.4706 23.5558 26.6706 23.2198 26.0786 22.8198L27.3266 20.1318C27.9186 20.4998 28.6146 20.8038 29.4146 21.0438C30.2306 21.2678 31.0306 21.3798 31.8146 21.3798C32.6786 21.3798 33.2866 21.2758 33.6386 21.0678C34.0066 20.8598 34.1906 20.5718 34.1906 20.2038C34.1906 19.8998 34.0466 19.6758 33.7586 19.5318C33.4866 19.3718 33.1186 19.2518 32.6546 19.1718C32.1906 19.0918 31.6786 19.0118 31.1186 18.9318C30.5746 18.8518 30.0226 18.7478 29.4626 18.6198C28.9026 18.4758 28.3906 18.2678 27.9266 17.9958C27.4626 17.7238 27.0866 17.3558 26.7986 16.8918C26.5266 16.4278 26.3906 15.8278 26.3906 15.0918C26.3906 14.2758 26.6226 13.5558 27.0866 12.9318C27.5666 12.3078 28.2546 11.8198 29.1506 11.4678C30.0466 11.0998 31.1186 10.9158 32.3666 10.9158C33.2466 10.9158 34.1426 11.0118 35.0546 11.2038C35.9666 11.3958 36.7266 11.6758 37.3346 12.0438L36.0866 14.7078C35.4626 14.3398 34.8306 14.0918 34.1906 13.9638C33.5666 13.8198 32.9586 13.7478 32.3666 13.7478C31.5346 13.7478 30.9266 13.8598 30.5426 14.0838C30.1586 14.3078 29.9666 14.5958 29.9666 14.9478C29.9666 15.2678 30.1026 15.5078 30.3746 15.6678C30.6626 15.8278 31.0386 15.9558 31.5026 16.0518C31.9666 16.1478 32.4706 16.2358 33.0146 16.3158C33.5746 16.3798 34.1346 16.4838 34.6946 16.6278C35.2546 16.7718 35.7586 16.9798 36.2066 17.2518C36.6706 17.5078 37.0466 17.8678 37.3346 18.3318C37.6226 18.7798 37.7666 19.3718 37.7666 20.1078C37.7666 20.9078 37.5266 21.6198 37.0466 22.2438C36.5666 22.8518 35.8706 23.3318 34.9586 23.6838C34.0626 24.0358 32.9666 24.2118 31.6706 24.2118Z" fill="#FF3300"/>
<path d="M45.3566 24.2118C43.8366 24.2118 42.6526 23.8278 41.8046 23.0598C40.9566 22.2758 40.5326 21.1158 40.5326 19.5798V8.25184H44.2766V19.5318C44.2766 20.0758 44.4206 20.4998 44.7086 20.8038C44.9966 21.0918 45.3886 21.2358 45.8846 21.2358C46.4766 21.2358 46.9806 21.0758 47.3966 20.7558L48.4046 23.3958C48.0206 23.6678 47.5566 23.8758 47.0126 24.0198C46.4846 24.1478 45.9326 24.2118 45.3566 24.2118ZM38.5406 14.2758V11.3958H47.4926V14.2758H38.5406Z" fill="#FF3300"/>
<path d="M50.5063 24.0198V11.1078H54.2503V24.0198H50.5063ZM52.3783 9.30784C51.6903 9.30784 51.1303 9.10784 50.6983 8.70784C50.2663 8.30784 50.0503 7.81184 50.0503 7.21984C50.0503 6.62784 50.2663 6.13184 50.6983 5.73184C51.1303 5.33184 51.6903 5.13184 52.3783 5.13184C53.0663 5.13184 53.6263 5.32384 54.0583 5.70784C54.4903 6.07584 54.7063 6.55584 54.7063 7.14784C54.7063 7.77184 54.4903 8.29184 54.0583 8.70784C53.6423 9.10784 53.0823 9.30784 52.3783 9.30784Z" fill="#FF3300"/>
<path d="M65.5731 10.9158C66.5971 10.9158 67.5091 11.1238 68.3091 11.5398C69.1251 11.9398 69.7651 12.5638 70.2291 13.4118C70.6931 14.2438 70.9251 15.3158 70.9251 16.6278V24.0198H67.181V17.2038C67.181 16.1638 66.9491 15.3958 66.4851 14.8998C66.0371 14.4038 65.3971 14.1558 64.5651 14.1558C63.9731 14.1558 63.4371 14.2838 62.9571 14.5398C62.4931 14.7798 62.1251 15.1558 61.8531 15.6678C61.5971 16.1798 61.4691 16.8358 61.4691 17.6358V24.0198H57.725V11.1078H61.3011V14.6838L60.6291 13.6038C61.0931 12.7398 61.7571 12.0758 62.6211 11.6118C63.4851 11.1478 64.4691 10.9158 65.5731 10.9158Z" fill="#FF3300"/>
<path d="M80.4846 28.8678C79.2686 28.8678 78.0926 28.7158 76.9566 28.4118C75.8366 28.1238 74.9006 27.6838 74.1486 27.0918L75.6366 24.4038C76.1806 24.8518 76.8686 25.2038 77.7006 25.4598C78.5486 25.7318 79.3806 25.8678 80.1966 25.8678C81.5246 25.8678 82.4845 25.5718 83.0765 24.9798C83.6845 24.3878 83.9886 23.5078 83.9886 22.3398V20.3958L84.2285 17.1558L84.1805 13.8918V11.1078H87.7326V21.8598C87.7326 24.2598 87.1086 26.0278 85.8605 27.1638C84.6125 28.2998 82.8206 28.8678 80.4846 28.8678ZM79.9086 23.3958C78.7085 23.3958 77.6206 23.1398 76.6446 22.6278C75.6846 22.0998 74.9086 21.3718 74.3166 20.4438C73.7406 19.4998 73.4525 18.4038 73.4525 17.1558C73.4525 15.8918 73.7406 14.7958 74.3166 13.8678C74.9086 12.9238 75.6846 12.1958 76.6446 11.6838C77.6206 11.1718 78.7085 10.9158 79.9086 10.9158C80.9966 10.9158 81.9566 11.1398 82.7886 11.5878C83.6206 12.0198 84.2686 12.6998 84.7326 13.6278C85.1966 14.5398 85.4286 15.7158 85.4286 17.1558C85.4286 18.5798 85.1966 19.7558 84.7326 20.6838C84.2686 21.5958 83.6206 22.2758 82.7886 22.7238C81.9566 23.1718 80.9966 23.3958 79.9086 23.3958ZM80.6525 20.3238C81.3085 20.3238 81.8926 20.1958 82.4046 19.9398C82.9166 19.6678 83.3165 19.2918 83.6045 18.8118C83.8925 18.3318 84.0366 17.7798 84.0366 17.1558C84.0366 16.5158 83.8925 15.9638 83.6045 15.4998C83.3165 15.0198 82.9166 14.6518 82.4046 14.3958C81.8926 14.1238 81.3085 13.9878 80.6525 13.9878C79.9965 13.9878 79.4126 14.1238 78.9006 14.3958C78.3886 14.6518 77.9806 15.0198 77.6766 15.4998C77.3886 15.9638 77.2446 16.5158 77.2446 17.1558C77.2446 17.7798 77.3886 18.3318 77.6766 18.8118C77.9806 19.2918 78.3886 19.6678 78.9006 19.9398C79.4126 20.1958 79.9965 20.3238 80.6525 20.3238Z" fill="#FF3300"/>
<path d="M105.79 24.1638C103.646 24.1638 101.958 23.5478 100.726 22.3158C99.4941 21.0838 98.8781 19.2598 98.8781 16.8438V7.21984H100.654V16.7718C100.654 18.7558 101.102 20.2198 101.998 21.1638C102.894 22.1078 104.158 22.5798 105.79 22.5798C107.438 22.5798 108.71 22.1078 109.606 21.1638C110.502 20.2198 110.95 18.7558 110.95 16.7718V7.21984H112.678V16.8438C112.678 19.2598 112.062 21.0838 110.83 22.3158C109.614 23.5478 107.934 24.1638 105.79 24.1638Z" fill="#FF3300"/>
<path d="M118.03 24.0198V7.21984H119.806V24.0198H118.03Z" fill="#FF3300"/>
</svg>
